<svg width="110" height="110" viewBox="0 0 110 110" fill="none" xmlns="http://www.w3.org/2000/svg">
<path d="M89.1292 87.4461C70.7111 89.826 51.8337 87.5492 36.9428 75.0758C23.5021 63.8171 19.7639 47.4376 37.401 38.1651C45.7499 33.7756 58.583 34.1519 64.7975 42.0656C71.7211 50.882 58.9941 58.2316 51.5591 58.4934C34.1936 59.1051 16.7376 46.2245 14.5466 27.3117C11.9518 4.91472 35.1286 5.84043 35.0718 5.98379" stroke="#F1ECEA" stroke-width="4" stroke-miterlimit="1.5" stroke-linecap="round" stroke-linejoin="round"/>
<path d="M76.925 104.153C77.3248 102.139 78.5132 100.51 79.6156 98.8251C83.2351 93.2904 88.9025 88.4867 95.48 86.931C88.1853 86.3023 78.9264 83.0275 75.5172 76.1304" stroke="#F1ECEA" stroke-width="4" stroke-miterlimit="1.5" stroke-linecap="round" stroke-linejoin="round"/>
</svg>
